<svg width="24" height="24" viewBox="0 0 24 24" fill="none" xmlns="http://www.w3.org/2000/svg">
<g clip-path="url(#clip0_800_1006)">
<path d="M0 -0.0470276C8.00016 0.934572 15.9984 1.92913 24 2.90113C23.9995 8.95153 23.987 15.0019 24 21.0523C15.9998 22.0325 7.99824 23.0055 0 24.0005C0.00096 15.9845 0.01392 7.96849 0 -0.0470276Z" stroke="#494C4F" stroke-width="0.5" stroke-miterlimit="10"/>
<path d="M0 21.8107C7.93104 20.0654 15.9163 20.16 23.9962 19.4021" stroke="#494C4F" stroke-width="0.5" stroke-miterlimit="10"/>
<path d="M0.00146484 19.6224C3.7901 18.587 7.44674 18.072 11.4015 18.0763C15.6154 18.0806 19.7943 18.145 23.9938 17.7528" stroke="#494C4F" stroke-width="0.5" stroke-miterlimit="10"/>
<path d="M0.00341797 17.4346C3.81702 16.32 7.44438 15.9312 11.4332 16.1554C15.6629 16.393 19.7636 16.5682 23.9929 16.1045" stroke="#494C4F" stroke-width="0.5" stroke-miterlimit="10"/>
<path d="M0.00488281 15.2482C3.91496 14.184 7.58456 13.9656 11.6204 14.3818C15.817 14.8147 19.7766 15.0115 23.9919 14.4557" stroke="#494C4F" stroke-width="0.5" stroke-miterlimit="10"/>
<path d="M0.00634766 13.0627C4.06619 12.2078 7.82843 12.1522 11.9214 12.719C16.0292 13.2883 19.8582 13.4376 23.9934 12.8064" stroke="#494C4F" stroke-width="0.5" stroke-miterlimit="10"/>
<path d="M0.00756836 10.8777C4.21045 10.2542 8.08885 10.4064 12.2461 11.0865C16.257 11.7427 19.954 11.8675 23.9946 11.1571" stroke="#494C4F" stroke-width="0.5" stroke-miterlimit="10"/>
<path d="M0.00854492 8.69279C4.32854 8.30063 8.31494 8.68223 12.5365 9.43295C16.4548 10.1299 20.05 10.2782 23.9951 9.50831" stroke="#494C4F" stroke-width="0.5" stroke-miterlimit="10"/>
<path d="M0.00805664 6.50833C8.16518 6.25201 15.8764 9.25345 23.997 7.85761" stroke="#494C4F" stroke-width="0.5" stroke-miterlimit="10"/>
<path d="M0.00634766 4.32385C8.12795 4.54705 15.8391 7.08913 23.9987 6.20641" stroke="#494C4F" stroke-width="0.5" stroke-miterlimit="10"/>
<path d="M0.00341797 2.1384C8.0631 2.78112 15.8665 4.64544 23.9996 4.55376" stroke="#494C4F" stroke-width="0.5" stroke-miterlimit="10"/>
<path d="M21.8189 2.63568C21.8904 8.9136 20.8128 15.061 21.815 21.3197" stroke="#494C4F" stroke-width="0.5" stroke-miterlimit="10"/>
<path d="M19.6378 2.36975C19.8044 5.77919 19.4367 9.11711 19.0383 12.5021C18.6716 15.6211 18.8492 18.517 19.6306 21.5865" stroke="#494C4F" stroke-width="0.5" stroke-miterlimit="10"/>
<path d="M17.4576 2.10336C17.8166 5.63472 17.4451 8.98608 16.8873 12.4747C16.3694 15.7147 16.4923 18.671 17.447 21.853" stroke="#494C4F" stroke-width="0.5" stroke-miterlimit="10"/>
<path d="M15.2774 1.836C15.8429 5.42544 15.5625 8.7624 14.8934 12.3101C14.2545 15.6946 14.2805 18.7718 15.2645 22.1198" stroke="#494C4F" stroke-width="0.5" stroke-miterlimit="10"/>
<path d="M13.0974 1.56671C13.8519 5.16191 13.717 8.47631 13.0124 12.0456C12.3145 15.5813 12.2444 18.8434 13.0844 22.3862" stroke="#494C4F" stroke-width="0.5" stroke-miterlimit="10"/>
<path d="M10.9167 1.29791C11.8579 4.87631 11.8498 8.17199 11.1552 11.7605C10.4395 15.4579 10.2307 18.9182 10.9037 22.6536" stroke="#494C4F" stroke-width="0.5" stroke-miterlimit="10"/>
<path d="M8.73601 1.02863C9.84337 4.58927 9.90769 7.88927 9.26353 11.5046C8.57617 15.3638 8.21089 19.0104 8.72305 22.92" stroke="#494C4F" stroke-width="0.5" stroke-miterlimit="10"/>
<path d="M6.55337 0.759369C7.63001 4.33297 7.77449 7.71985 7.24649 11.3602C6.67145 15.3226 6.21881 19.1832 6.54233 23.1888" stroke="#494C4F" stroke-width="0.5" stroke-miterlimit="10"/>
<path d="M4.36995 0.490082C5.24931 4.1472 5.44227 7.65696 5.06163 11.363C4.64739 15.3984 4.21875 19.3992 4.36227 23.4586" stroke="#494C4F" stroke-width="0.5" stroke-miterlimit="10"/>
<path d="M2.18547 0.221283C3.30099 8.088 2.13363 15.8434 2.18163 23.7288" stroke="#494C4F" stroke-width="0.5" stroke-miterlimit="10"/>
</g>
<defs>
<clipPath id="clip0_800_1006">
<rect width="24" height="24" fill="white"/>
</clipPath>
</defs>
</svg>
