<svg width="24" height="25" viewBox="0 0 24 25" fill="none" xmlns="http://www.w3.org/2000/svg">
<g clip-path="url(#clip0_441_3444)">
<path d="M0 0.452957C8.00016 1.43456 15.9984 2.42912 24 3.40112C23.9995 9.45152 23.987 15.5019 24 21.5523C15.9998 22.5325 7.99824 23.5054 0 24.5005C0.00096 16.4845 0.01392 8.46848 0 0.452957Z" stroke="#494C4F" stroke-miterlimit="10"/>
<path d="M0 22.3107C7.93104 20.5654 15.9163 20.66 23.9962 19.9021" stroke="#494C4F" stroke-miterlimit="10"/>
<path d="M0.00146484 20.1224C3.7901 19.087 7.44674 18.572 11.4015 18.5763C15.6154 18.5806 19.7943 18.645 23.9938 18.2528" stroke="#494C4F" stroke-miterlimit="10"/>
<path d="M0.00341797 17.9346C3.81702 16.82 7.44438 16.4312 11.4332 16.6554C15.6629 16.893 19.7636 17.0682 23.9929 16.6045" stroke="#494C4F" stroke-miterlimit="10"/>
<path d="M0.00488281 15.7482C3.91496 14.684 7.58456 14.4656 11.6204 14.8818C15.817 15.3147 19.7766 15.5115 23.9919 14.9557" stroke="#494C4F" stroke-miterlimit="10"/>
<path d="M0.00634766 13.5627C4.06619 12.7078 7.82843 12.6522 11.9214 13.219C16.0292 13.7883 19.8582 13.9376 23.9934 13.3064" stroke="#494C4F" stroke-miterlimit="10"/>
<path d="M0.00756836 11.3778C4.21045 10.7542 8.08885 10.9064 12.2461 11.5866C16.257 12.2427 19.954 12.3675 23.9946 11.6571" stroke="#494C4F" stroke-miterlimit="10"/>
<path d="M0.00854492 9.1928C4.32854 8.80064 8.31494 9.18224 12.5365 9.93296C16.4548 10.6299 20.05 10.7782 23.9951 10.0083" stroke="#494C4F" stroke-miterlimit="10"/>
<path d="M0.00805664 7.00832C8.16518 6.752 15.8764 9.75344 23.997 8.3576" stroke="#494C4F" stroke-miterlimit="10"/>
<path d="M0.00634766 4.82384C8.12795 5.04704 15.8391 7.58912 23.9987 6.7064" stroke="#494C4F" stroke-miterlimit="10"/>
<path d="M0.00341797 2.6384C8.0631 3.28112 15.8665 5.14544 23.9996 5.05376" stroke="#494C4F" stroke-miterlimit="10"/>
<path d="M21.8189 3.13568C21.8904 9.4136 20.8128 15.561 21.815 21.8197" stroke="#494C4F" stroke-miterlimit="10"/>
<path d="M19.6378 2.86977C19.8044 6.27921 19.4367 9.61713 19.0383 13.0021C18.6716 16.1211 18.8492 19.017 19.6306 22.0866" stroke="#494C4F" stroke-miterlimit="10"/>
<path d="M17.4576 2.60336C17.8166 6.13472 17.4451 9.48608 16.8873 12.9747C16.3694 16.2147 16.4923 19.171 17.447 22.353" stroke="#494C4F" stroke-miterlimit="10"/>
<path d="M15.2774 2.336C15.8429 5.92544 15.5625 9.2624 14.8934 12.8101C14.2545 16.1946 14.2805 19.2718 15.2645 22.6198" stroke="#494C4F" stroke-miterlimit="10"/>
<path d="M13.0974 2.06673C13.8519 5.66193 13.717 8.97633 13.0124 12.5456C12.3145 16.0813 12.2444 19.3434 13.0844 22.8862" stroke="#494C4F" stroke-miterlimit="10"/>
<path d="M10.9167 1.79791C11.8579 5.37631 11.8498 8.67199 11.1552 12.2605C10.4395 15.9579 10.2307 19.4182 10.9037 23.1536" stroke="#494C4F" stroke-miterlimit="10"/>
<path d="M8.73601 1.52864C9.84337 5.08928 9.90769 8.38928 9.26353 12.0046C8.57617 15.8638 8.21089 19.5104 8.72305 23.42" stroke="#494C4F" stroke-miterlimit="10"/>
<path d="M6.55337 1.25935C7.63001 4.83295 7.77449 8.21983 7.24649 11.8602C6.67145 15.8226 6.21881 19.6832 6.54233 23.6888" stroke="#494C4F" stroke-miterlimit="10"/>
<path d="M4.36995 0.990082C5.24931 4.6472 5.44227 8.15696 5.06163 11.863C4.64739 15.8984 4.21875 19.8992 4.36227 23.9586" stroke="#494C4F" stroke-miterlimit="10"/>
<path d="M2.18547 0.721283C3.30099 8.588 2.13363 16.3434 2.18163 24.2288" stroke="#494C4F" stroke-miterlimit="10"/>
</g>
<defs>
<clipPath id="clip0_441_3444">
<rect width="24" height="24" fill="white" transform="translate(0 0.5)"/>
</clipPath>
</defs>
</svg>
